<?xml version="1.0" encoding="utf-8"?>
<!-- Generator: Adobe Illustrator 24.3.0, SVG Export Plug-In . SVG Version: 6.00 Build 0)  -->
<svg version="1.1" id="Calque_1" xmlns="http://www.w3.org/2000/svg" xmlns:xlink="http://www.w3.org/1999/xlink" x="0px" y="0px"
	 viewBox="0 0 300 300" style="enable-background:new 0 0 300 300;" xml:space="preserve">
<style type="text/css">
	.st0{fill-rule:evenodd;clip-rule:evenodd;fill:#0F0F0F;}
	.st1{fill-rule:evenodd;clip-rule:evenodd;}
	.st2{fill-rule:evenodd;clip-rule:evenodd;fill:#fff;}
	.st3{fill-rule:evenodd;clip-rule:evenodd;fill:#020202;}
	.st4{fill:#0F0F0F;}
	.st5{fill-rule:evenodd;clip-rule:evenodd;fill:#FEFEFE;}
</style>
<path class="st0" d="M144.6,147c-1.8-1.7-3.4-3.7-4.5-6c5.5-2,11.6-3.7,17.5-3.8c-3.6,3.5-6.8,7.4-10.1,11c-0.7-0.3-1.3-0.7-2-1"/>
<path class="st0" d="M158.2,135.8c0.3,0.1,0.6,0.3,0.8,0.6c0.2,0.3,0.3,0.7,0.2,1c-0.2,0.9-0.2,0.4-3.5,4c-3.4,3.6-2.8,3.4-6.3,6.6
	c-1.4,1.3-1.3,1.2-1.6,1.3c-0.7,0.1-0.6-0.1-2.5-1.3l0,0l-0.2-0.2l-0.4,0.2l-0.7-0.2v0c-1.9-1.4-3.5-3.2-4.7-5.2
	c-0.5-0.8-0.7-1.1-0.6-1.9c0.1-0.3,0.3-0.6,0.5-0.8c4.7-1.9,9.6-3.2,14.6-3.9C155.3,135.7,156.7,135.7,158.2,135.8z M153.7,139
	c-3.9,0.6-7.7,1.5-11.4,2.8c0,0,0.1,0.2,0.1,0.2c0.8,1.5,1.8,2.9,2.9,4.2l0.1,0.2c0.7,0,0.3-0.1,1.8,0.4c1.3-1.9,2.7-3.7,4.2-5.3
	C154,138.8,153.8,139,153.7,139L153.7,139z"/>
<path class="st1" d="M203.7,169.8c-2.5,3.3-5.2,6.4-7.7,9.7c2.9,0.5,5.9,0.5,8.9,0.8C205.4,176.7,205,173,203.7,169.8"/>
<path class="st0" d="M204.3,169L204.3,169l0.3,0.6l0,0c0.1,0.1,0.1,0.2,0.3,0.7c1.5,3.1,2,6.6,1.4,10c0,0.7-0.5,1.3-1.2,1.4
	c-0.4,0.1-0.1,0.1-1.9-0.1c-1.8-0.1-4.3-0.2-5.8-0.4c-1.9-0.2-2.1-0.3-2.6-0.6c-0.6-0.5-0.7-1.3-0.4-1.9c0.4-0.6,3.9-4.9,4.3-5.4
	c1.9-2.2,3.7-3.8,4-4.2c0.5-0.2,0.4-0.1,0.5-0.3l0,0l0,0l0.1,0C203.7,168.8,203.5,168.8,204.3,169z M198.9,178.3
	c4.6,0.3,3.9,0.3,4.6,0.3c0-2.1,0-4.2-0.2-6.3C201.3,175.3,203.4,172.5,198.9,178.3L198.9,178.3z"/>
<path class="st2" d="M143,90.1c7.1,7.5,11.4,16.6,13.6,26.6c-6.4,7.6-12.1,15.8-17,24.5c6.4-2.7,13.8-4.4,20.8-3.7
	c21.9,2,42.7,21.5,44.4,43.9c3.5-4.5,7.3-8.8,10.9-13.3c2.3-2.8,4.4-5.9,7-8.5c-3.5-6.1-3.1-13.6-2.5-20.3
	c1.2-14.7,6-30.7,13.9-43.4c-4.6,1.4-10.5,3.2-15.3,1.9c-6.2-1.6-9-7.2-4.7-12.4c-7.6-3-16.1-3.5-24.2-3.6
	c-16.4-0.3-32.7,2.7-47.9,8.8"/>
<path class="st1" d="M226.5,46.5l0.4,0.6c-0.1,1.2,0.2,0.1-1.2,3.1c-3.6,8.1-4.1,8.7-5.3,12.2c-2.1,6.4-2.3,12.2,3.3,16
	c1.4,0.9,1.7,0.8,1.9,1.7c0.1,0.5-0.1,1.1-0.4,1.5c-1.2,1.9-2.6,5-3.9,7.3c-0.3,0.5-0.9,0.7-1.5,0.5c-1.7-0.6-3.2-1.5-4.5-2.7
	l-0.3-0.5l0.1-0.6l0,0l0.5-0.3c0.9,0.1,0.3,0,1.8,0.6c0.7,0.3,1.4,0.6,2.1,0.7c0.4-1.2,0.9-2.4,1.4-3.5c0.4-0.8,0.7-1.5,1.2-2.3
	c-11.2-7.2-4.7-23.1,3-34c0.1-0.1,0,0,0.7-0.5L226.5,46.5L226.5,46.5z"/>
<ellipse transform="matrix(0.415 -0.9098 0.9098 0.415 83.5809 251.2203)" cx="237.1" cy="60.6" rx="2.4" ry="1.5"/>
<path class="st2" d="M275.6,149.6c3.7-10,1-21.2-3.9-30.2c-2.1-4-7.1-8.9-12-9c-1.4,9.8-2.6,19.8-5.1,29.3c7.3,0.2,16,4.1,20.4,10.1
	"/>
<path class="st1" d="M254.9,60.7c-2.5-0.3-5,0.2-7.2,1.5c-2.7-2.6-2.2-6.5-1.4-9.8c-7.2,1.1-14.7,0-19.7-5.2
	c-4.6-4.7-6.2-11.6-4.2-17.9c2.2-6.7,9-11.3,15.9-8.5c7.8,3.2,9.7,12.7,11.3,19.9c2.9,1.5,5.4,3.1,7.2,5.8c3,4.5,1.6,10.3-2.1,13.9"
	/>
<path class="st1" d="M240.4,20.2c6.8,3.8,8.8,12.1,10.5,19.6c2.5,1.2,4.7,3,6.5,5.3c3.4,4.7,2.8,10.5-0.8,14.8c-0.9,1-0.8,0.7-0.7,1
	v0l-0.4,0.6c-0.9,0.3-0.5,0.2-1.3,0.2c-1.1-0.1-2.2,0.1-3.2,0.5c-2.6,0.9-2.5,1.6-3.6,1.3c-0.7-0.5-1.3-1.1-1.8-1.8
	c-1.4-2.3-1.4-4.8-1.1-7.4c-5.5,0.6-11.3-0.2-15.9-3.3c-5.7-3.8-8.9-10.3-8.6-17.2C220.7,22.1,231.2,15.1,240.4,20.2z M232.2,21.7
	c-8.2,1.7-12.6,13.6-6,22.7c3.7,5,9,6.8,15.1,6.8c4.8,0,4.9-0.8,6,0.1c0.8,1,0.2,1.2-0.2,4.3c-0.3,1.7,0,3.5,0.9,5
	c2-1,4.2-1.3,6.4-1.1c2.7-3,3.7-7.3,2.1-10.8c-1.2-2.7-3.7-4.5-6.2-6c-3-1.6-1.4-0.1-3.8-8.1c-0.7-2.8-1.9-5.5-3.5-8
	C240.1,22.4,235.8,21,232.2,21.7L232.2,21.7z"/>
<path class="st1" d="M225.5,79.6c0.2,0,0.5,0.1,0.7,0.3c1.3,0.7,2.7,1.2,4.2,1.4c0.1,0,0.1,0.1,0.2,0.1l0.2,0.1
	c0.6,0.3,1.2,0.7,1.7,1.2c-0.7,0.8-0.7,1-1.7,1.4c-0.7,0.3-1,0.2-2.1,0c-1.3-0.3-2.6-0.7-3.8-1.4c-0.3-0.2-0.6-0.4-0.9-0.7l0,0
	c-0.2-0.3-0.4-0.6-0.5-0.9c-0.1-0.2-0.1,0-0.2-1.6C224,79.4,224.7,79.4,225.5,79.6z"/>
<path class="st1" d="M232.6,69.5c0.4,0.9,0.3,1.8-0.1,2.7c-0.5,0.6-1.1,1.1-1.8,1.5c-1.1,0.7-2.4,0.9-3.6,0.5
	c-0.7-0.2-1.4-0.8-1.7-1.5c-0.2-0.5-0.3-1.1-0.1-1.6c0-0.1-0.1,0,0.8-1.3c1.9,1.2,0.8,0.5,1.4,1c0.2,0.1,0.3,0.2,0.5,0.3
	c0.3,0.4,1.1,0,1.5-0.3C230.6,70.1,229.4,70.4,232.6,69.5z"/>
<path class="st1" d="M230.2,54.8L230.2,54.8l0.1,0.6c-0.1,0.6-0.4,1.1-0.8,1.5c-1.2,1.7-1.9,2-4.1,4.8c-0.2,0.3-0.8,1.1-1,1.3
	c0.8,0.4,1.4,0.9,2,1.6c0.5,0.6,0.4,0.3,0.8,1.6c-1.6,0.4-0.8,0.3-3.1-0.1c-1.2-0.3-2.6-0.8-3.1-2c-0.2-0.8,0-1.7,0.5-2.3
	c1.3-1.9,2.7-3.6,4.3-5.2c0.6-0.7,1.4-1.2,2.3-1.6c0.5-0.3,1-0.5,1.5-0.5L230.2,54.8z"/>
<path class="st1" d="M106.8,234.7c0.6-12.2-1.6-24.5-0.3-36.8c-4.8,4.6-10.5,8.4-15.4,13c-11,10.2-20.5,21.6-30.1,33
	c8.8,4.2,14.6,14.1,13.1,23.9c2-5.1,5.8-9.6,9.3-13.6C90.2,246.3,106.8,234.7,106.8,234.7z"/>
<path class="st0" d="M106.9,196.5c0.3,0.1,0.6,0.3,0.8,0.6c0.5,0.9,0.2,0.5-0.1,5.5c-0.4,11.6,0.8,21.6,0.1,32.2
	c-0.5,0-1.8-0.1-0.2,0c-0.1,0.6,0.2,0.1-5,4.2c-4.4,3.5-8.8,7.1-12.9,10.9c-4.8,4.5-11.5,11.9-14.1,18c-0.3,0.7-0.3,0.9-0.9,1.2
	c-0.6,0.4-1.4,0.2-1.9-0.3c-0.4-0.4-0.5-1-0.3-1.5c1.2-8.5-3.8-17.2-10.9-21.2c-1.6-0.9-1.9-0.8-2.2-1.7c-0.1-0.3-0.1-0.7,0-1
	c0.2-0.5-0.4,0.4,6.1-7.4c23.8-27.9,27.7-28.7,37.1-36.7C105.8,196.6,105.6,196.2,106.9,196.5z M104.4,201.8
	c-10.5,8.9-12.4,7.8-41.1,41.7c6.6,3.9,11.1,10.5,12.2,18.1c2.8-4.1,6-7.9,9.5-11.3c6.5-5.8,13.4-11.1,20.7-15.9v0l0,0
	c0.2-8.4-0.9-17.1-1.2-24.9C104.3,201.2,105,201.3,104.4,201.8z"/>
<path class="st0" d="M141.4,223.9c2.2-16.2,2.8-32.5,1.8-48.8c-0.6-7.9-4.4-18.3-13.4-16.4c-11.4,2.3-14.8,14-14.9,24.3
	c-0.2,21,1.5,42.1,1.9,63.1c3.1-9.1,5.6-20.2,11.6-28C135.2,209.1,140.1,216.2,141.4,223.9"/>
<path class="st1" d="M137.1,158.4c1.1,0.7,2.1,1.7,3,2.7c1.4,1.8,2.4,3.7,3.1,5.9c1.1,3.3,1.7,6.8,1.7,10.2
	c0.7,12.7,0.4,26.3-2.2,44.5c-0.4,2.7-0.2,2.1-0.7,2.9l-0.7,0.2h0l-0.6-0.4l-0.2-0.7c0.1-0.3,0-0.5,0-0.8c-0.7-2.8-2.2-6.8-4.8-7.8
	c-2.3-0.9-4.8,1.6-6.3,3.6c-5.3,7.1-7.7,17.5-10.8,26.6c-0.4,1.2-0.5,2-1.8,2.1c-0.4,0-0.7-0.1-1-0.3c-0.3-0.2-0.5-0.5-0.5-0.9
	c0-0.3-0.1-2.1-0.2-6.2c-0.7-21.3-1.9-36.8-1.8-56.8c0.1-7.1,1.3-14.6,6-20.2C123.4,158.1,131.6,154.8,137.1,158.4z M132.7,160
	c-2.5-0.3-7,0.9-10.3,4.3c-4,4.1-5.6,10.5-5.9,16.3c-0.6,10.5,1.1,43.6,1.6,56.5c2.2-6.9,5.3-15.5,10.2-20.9
	c1.4-1.7,3.2-2.8,5.3-3.3c1.3-0.2,2.6,0.1,3.6,0.8c0.7,0.5,1.3,1,1.8,1.7c2,2.8,1.9,4.1,1.9,3.2c1.1-11.7,1.5-23.4,1.1-35.1
	c-0.2-5.9-0.3-10.9-1.8-15.4C139,164.3,136.7,160.5,132.7,160L132.7,160z"/>
<path class="st0" d="M197.8,183.6c-1.1-4.2-3.8-7.4-6.4-10.8c-11.2-14.7-28.3-20.4-45.6-24c-1.4,1.6-2.7,3.2-4,4.8
	c11.1,4.5,11.2,16.1,10.3,26.6c-1,11.8-1.6,23.8-2.6,35.6c7.3-2.2,15.5-2.4,22.4-5.8C182.8,204.4,197.8,183.6,197.8,183.6z"/>
<path class="st1" d="M146.4,147.3c14.9,3.1,28.6,7.5,39.7,17.7c2.7,2.6,5.2,5.5,7.4,8.6c2.2,3,4.3,6.1,5.2,9.7l-0.2,0
	c0.1,0.5-0.1,0.7-0.5,1.2c-4.8,7-10.2,13.5-16.2,19.5c-9.7,9.5-14.9,9.3-27.8,12c-4.5,1-4.8,1.6-5.8,0.6c-0.5-0.7-0.4-0.9-0.2-2.8
	c0.8-9.8,1.3-19,2-27.8c0.8-11,3.1-24.3-6.5-30c-2.3-1.3-3.1-1.1-3.3-2.5c0.1-0.7,0-0.6,2.3-3.4C145,147.2,144.9,147,146.4,147.3z
	 M144.1,153c9.7,5.3,10.4,15.5,9.4,26.5c-0.9,10.1-0.6,8.1-2.5,34.2h0c8.2-2.1,15.9-2,23.6-7.3c7.1-5.1,15.1-14,20.5-20.7
	c1.3-1.6,1.5-1.9,1.6-2.1c-0.6-2.4-2.8-5.6-4.4-7.6c-9.1-11.7-19.3-19.9-46.1-25.6C144.8,152.1,144.2,152.8,144.1,153L144.1,153z"/>
<path class="st0" d="M259,60.4c0.4,0.7,0.4,0.5,0.4,1.6c0.6,10.8-7.1,16.2-13.5,23.5c-1.8,2.1-3.5,4.3-4.8,6.8
	c-10.3,16.8-18.1,34.9-16.7,54.4c0.5,5.9,1.4,11.1,4.5,16.2c2.9,4.3,7,7.3,15.5,8.1c2.5,0.2,5.1,0,7.6-0.4
	c9.3-1.7,17.2-7.2,20.6-16.3c1-2.7,0.4-1.8,1.1-2.7l0.6-0.1h0l0.5,0.4c0.1,0.7,0.2,0.4-0.1,1.6c-3.4,14-16.8,21.8-31.4,20.5
	c-7.7-0.9-13.9-4-17.7-10.8c-2.6-4.3-3.6-10.3-4.1-15.3c-1.4-15.3,2.8-29.7,9.6-43.5c2.8-5.7,6-11.3,9.5-16.7
	c6.3-9.2,16.8-13.6,17-24.9c0-1.9-0.2-1.1,0.2-2.2l0.6-0.3h0L259,60.4z"/>
<path class="st0" d="M263.1,71.2c0-0.8,0.1-1.6,0.3-2.3c0.5-1.4,0.8-2.8,1-4.2c0.3-2.9-0.3-3.1-0.2-5.9c0-0.8-0.1-0.4,0.7-1.8l0,0
	l0.6,0.1c0.4,0.3,0.7,0.6,0.9,1.1c0.3,0.5,0.5,1,0.7,1.6c0.4,1.8,0.5,3.6,0.3,5.5c-0.1,1.3-0.4,2.5-0.8,3.7
	c-0.3,1.1-0.9,2.1-1.7,2.8c-0.5,0.4-0.2,0.3-1.5,0.7C263,71.1,263.1,71.3,263.1,71.2z"/>
<path class="st0" d="M270.4,72.3c0.2-1.2,0.5-2.4,0.9-3.5c0.8-2,1.2-4.2,1.2-6.3c0-1.1-0.2-2.3-0.4-3.4c-0.4-3.1-0.4-2-0.2-3.2
	l0.4-0.5h0l0.6,0c0.7,0.5,0.6,0.4,0.8,0.7c1.1,1.4,1.7,3.2,1.7,5c0.3,4.6-1.1,9.1-2.3,10.5c-0.4,0.6-0.9,1.1-1.5,1.6l-1.1,0.3
	C270.3,72.3,270.3,72.5,270.4,72.3z"/>
<path class="st0" d="M279.8,68.3c0.2,0.6,0.4,0.6-0.1,3.6c-0.4,2.4-1.2,4.8-2.3,7c-4.5,8.8-11.1,8.5-14,15.1
	c-7.6,17.5-7.9,34-12,54.8c-0.1,0.5,0,0.3-0.4,1c-1.7,0.5-1.4,0.1-0.5-11.4c0.8-9.8,3.2-25.9,7-37.4c0.8-2.5,2.8-8.1,4.2-10.3
	c3-4.6,7.5-5.8,11.2-10.3c2.6-3.2,4.3-6.9,5.1-11c0.1-0.8,0-0.4,0.5-1.2l0.7-0.2h0L279.8,68.3z"/>
<path class="st1" d="M258.2,63.4c-8.2-2-16.9,10.4-12.9,14.9c2,2.2,4.6,0.4,6.2-1.4c3-3.6,6.7-8.7,6.1-13.7"/>
<path class="st0" d="M258.2,62.4c0.4,0.1,0.2,0,0.9,0.6l0.1,0.7v0c-0.5,0.6-0.4,0.5-0.5,0.6c0.2,3.2-0.6,6.3-2.4,8.9
	c-1.2,1.8-2.5,3.5-3.9,5.2c-3.6,3.8-7.4,3.1-9-0.3C240.4,71.9,249.4,59.8,258.2,62.4z M251.3,66.6L251.3,66.6
	c-0.8,0.6-1.6,1.3-2.3,2.1c-1.8,2-4.2,6.3-2.7,8.5c0.3,0.6,1.1,0.9,1.8,0.6c1.4-0.5,2.4-1.9,3.4-3.1c1.8-2.3,3.4-4.8,4.6-7.5
	c0.4-0.9,0.6-1.8,0.7-2.8C254.7,64.5,252.8,65.3,251.3,66.6L251.3,66.6z"/>
<path class="st0" d="M217.6,66.3c0.3-4.4,1.9-8.5,4.4-12.1c-0.5-3.5-3.7-5.9-7.1-5.4c-0.6,0.1-1.2,0.2-1.7,0.5
	c-3.1,1.3-5.8,4.9-6.6,8.1c-0.8,2.8-0.3,5.8,1.3,8.2c2.7,3.5,7.1,3,9.8,0.1"/>
<path class="st0" d="M223.5,53.9c0.2,1.3-0.5,1-2.3,4.5c-0.9,1.8-1.7,3.7-2.2,5.7c-0.8,2.9-0.2,1.8-0.9,3l-0.7,0.2h0l-0.1-0.1
	c-1.4,1.4-3.3,2.1-5.3,2.1c-6.7-0.1-10.6-9.9-4.2-17.8C213.9,44.1,222.5,47.2,223.5,53.9z M212.2,51.6c-2.1,1.7-3.7,4-4.3,6.6
	c-1.3,6.6,4.1,10.8,8.8,7.2c0.1-4.1,1.4-8.2,3.7-11.6C219.6,50.6,215.8,48.9,212.2,51.6z"/>
<path class="st3" d="M221.4,45.3c0.1,0.3,0.1,0.5,0.1,0.8c0,0.3,0,0.3-0.2,0.5c-1.4,1.9-1.2,2-1.6,2.2c-0.2,0.1-0.4,0.2-0.7,0.2
	l-1.7-0.9c0-0.1-0.1-0.4-0.1-0.4c0-0.6-0.2-0.4,1.2-2.3c0.7-1,0.6-1,1.7-1.1L221.4,45.3z"/>
<path class="st0" d="M267.7,47.4c0,1.9-0.4,3.7-1.2,5.4c-0.6,1.3-0.6,1.2-1.1,1.6l-0.6,0.1h0l-0.4-0.4c-0.2-1.6,0.1,0.4,0.2-5.5
	c0.1-1.1,0-2.1-0.1-3.2c-0.6-4.7-3.1-8.8-7.6-10.5c-1.5-0.7-3.1-1.1-4.7-1.4c-0.1,0,0,0-0.7-0.4l-0.3-0.6v0l0.3-0.6
	c0.7-0.4,0.5-0.4,1.9-0.4C261.8,31,267.6,38.9,267.7,47.4z"/>
<circle cx="178.6" cy="40.9" r="4.1"/>
<path class="st0" d="M178.6,35.8c0.9,0.1,0.9,0.3,0.9,0.2c0.9,0.1,1.7,0.3,2.5,0.8c1.1,0.7,1.9,1.9,2.2,3.2c0.5,3.1-1.6,5.9-4.6,6.4
	c-1.8,0.3-3.7-0.3-4.9-1.6C171.2,41.2,173.8,35.1,178.6,35.8z M176.4,39.7c-0.7,1.2-0.2,2.8,1,3.5c0.7,0.4,1.4,0.4,2.1,0.2
	c2.2-0.8,2.1-3.8,0.4-5.1c-0.5-0.4-0.5-0.2-0.4-0.4C178.2,37.8,177,38.5,176.4,39.7L176.4,39.7z"/>
<circle cx="194.4" cy="39.4" r="3.6"/>
<path class="st0" d="M194.3,34.8c0.9,0.2,0.9,0.3,0.9,0.2c0.8,0,1.5,0.3,2.2,0.7c2.2,1.4,2.8,4.3,1.4,6.4c-0.1,0.2-0.3,0.4-0.5,0.6
	c-1.8,2.1-5,2.4-7.2,0.6c-0.1-0.1-0.2-0.2-0.3-0.3C187.6,39.8,189.8,34.2,194.3,34.8z M193.2,37.7c-2.3,2.5,0.7,4.9,2.6,3.3
	c0.9-1.1,0.8-2.7-0.3-3.7c-0.1-0.1-0.3-0.2-0.4-0.3l0-0.2C194.4,36.8,193.7,37.1,193.2,37.7z"/>
<path class="st0" d="M184.8,22.4c5.1,2,9.9,3.7,14.8,5.7c0.7,0.3,1,0.9,0.9,1.6c-0.4,3.4-1.1,6.8-1.9,10.1c-0.1,0.4-0.2,0.9-0.5,1.2
	l-0.6,0.2h0L197,41c-0.2-0.4-0.2-0.9-0.2-1.3c0-3.1,0.1-6.1,0.5-9.2c-1.8-0.7-11.8-4.5-11.8-4.5c-0.7,6.2-0.5,9.1-2.3,16.6
	c0,0.1,0,0-0.4,0.7l-0.7,0.2h0l-0.6-0.4c-0.3-1-0.2-0.4-0.1-1.9c0.2-3.5,0.1-6.9,1.2-16.3c0.2-1.5,0.1-1.6,0.6-2.1
	C183.6,22.4,184.2,22.2,184.8,22.4L184.8,22.4z"/>
<path class="st0" d="M252.1,196.1c0.2,0.4,0.5,0.7,0.2,2.8c-0.1,1-0.5,1.9-1,2.8l0,0c-0.7,1.2-2.1,2-3.5,1.9
	c-0.8-0.1-1.6-0.4-2.3-0.8c-2-1.6-2.6-3.7-3.8-4.2v0c-1-0.4-2.1-0.5-3.1-0.1c0.2,4,0.8,7.6,1,10.2c0.3,4.9,0.3,3.9,0,4.8l-0.6,0.4h0
	l-0.7-0.2L238,213c0-0.1-1.1-3.6-1.4-5.5c-0.4-2.1-0.7-5-0.8-7.1c-0.3-3.2-0.3-3.3,0.1-3.9c0.2-0.3,0.5-0.5,0.9-0.6
	c1.2-0.5,2.4-0.8,3.7-0.8c5,0.2,5.2,4.3,7.2,5.3l0,0l0,0l0,0l0,0l0,0l0,0l0,0l0,0l0.2,0h0l0,0h0l0,0h0h0h0h0h0h0h0h0h0h0h0h0h0h0
	l0,0h0h0l0,0h0h0h0h0h0h0h0h0l0,0h0h0c0.1,0,0,0,0.1,0l0,0h0c0,0,0.1,0,0.1-0.1l0,0c0.7-0.4,1.2-1.1,1.5-1.8
	c0.3-0.5,0.5-1.1,0.6-1.7c0.1-0.3,0-0.1,0.3-0.8l0.5-0.2l0,0h0L252.1,196.1z"/>
<circle class="st4" cx="234.2" cy="214.8" r="5.1"/>
<path class="st0" d="M234.3,208.7c0.3,0,0.6,0.1,0.9,0.2l0,0l0.7,0.1h0c0.9,0.1,1.7,0.5,2.4,1c4.6,3.4,2.5,10.7-3.4,11.5
	c-3.6,0.4-6.9-2.3-7.3-5.9c-0.1-0.9,0-1.8,0.3-2.6l0,0C228.6,210,231.4,208.2,234.3,208.7L234.3,208.7z M230.8,213.8L230.8,213.8
	c-0.5,1.5,0.1,3.1,1.4,4c0.4,0.3,0.8,0.5,1.3,0.5c2,0.4,3.9-0.9,4.3-2.9c0.2-0.8,0-1.7-0.4-2.5l0,0c-0.2-0.4-0.4-0.8-0.7-1.1l0,0
	c-0.4-0.4-0.8-0.8-1.4-1h0l0,0l0-0.2C233.3,210.6,231.4,211.8,230.8,213.8L230.8,213.8z"/>
<path class="st0" d="M126.7,78c4.9,7.7,6.3,16.5,9.7,21.9l0,0c1.1,2.1,2.6,3.9,4.5,5.2c0.8,0.5,0.5,0.2,1,0.8l0,0.6v0l-0.4,0.4
	c-0.6,0-0.5,0.1-1.9-0.5c-2.4-1.1-4.3-2.8-5.7-5l0,0c-4.1-6.6-5.2-15.8-10.7-23.4v0c-1-1.4-2.1-2.6-3.3-3.8c-1.2-1.2-2.6-2.2-4-3.1
	l0,0l-0.5-0.6l0-0.7v0l0.5-0.5l0.8,0C120.6,71,123.5,72.9,126.7,78z"/>
<path class="st0" d="M132,95.5c0.3-0.4,0.6-0.8,0.9-1.2l0,0c1.8-1,3.6-1.8,5.6-2.5c0.3-0.2,0.7-0.2,1-0.3h0c0.4,0,0.9,0,1.3,0
	l1.2,0.6c-0.8,1.5-0.5,1.1-1.2,1.7c-0.3,0.2-0.6,0.4-0.9,0.6c-3.8,1.4-5.1,2.2-5.7,2.4l0,0c-0.1,0-0.2,0-0.3,0.1l0,0
	c-0.8,0.1-1.7,0.1-2.5-0.2C131.9,95.5,131.9,95.7,132,95.5z"/>
<path class="st0" d="M105,95.4c0.6,1,0.2-0.3,1.3,5.9c0.5,2.5,1,5,1.8,7.5c2.7,8.9,8.3,16.7,17.2,19.9c1.9,0.7,3.9,1.1,5.9,1.3
	c3.3,0.2,6.5,0.3,9.8,0.1l0.6,0.2l0.3,0.5v0l-0.2,0.6c-0.8,0.5-0.1,0.2-3.6,1c-3.5,0.8-7.2,0.9-10.7,0.2c-2.2-0.5-4.3-1.2-6.3-2.2
	c-2.6-1.3-5-3.1-7-5.1c-5.5-5.4-9.5-14.4-10.2-21.5c-0.3-2.6-0.3-4.2-0.4-6.7c-0.1-0.5,0-1,0.2-1.5l0.6-0.3h0L105,95.4z"/>
<path class="st0" d="M140.2,217.2c3.4,6,1.5,15.2-1.4,21.5c-0.9,2-2,3.9-3.4,5.7l0,0c-1.6,2.2-3.8,4.8-4.6,7.3
	c-1.1,3.5-0.5,8.4-4.5,11.3c-0.8,0.5-1.7,0.9-2.6,1.1c-3.5,0.7-6.8-1.8-8.3-5c-1.7-3.8-1.2-8.2,0.2-12.2c1.3-3.5,1.6-3.1,1.2-3.3
	c1.9-7.3,5.6-17.7,10-23.9c1.2-1.8,2.7-3.3,4.4-4.6C134.7,212.6,138.2,213.7,140.2,217.2z M118.5,244.4c-1.4,3.6-2.3,7.9-1.3,11.6
	c1.2,4.5,4.8,6,7,4.8c2.4-1,2.7-4.7,3.1-7.2c0.8-4.8,2.6-6.8,5.7-10.9l0,0c4.4-6,6.3-13.8,5.9-19c-0.1-1.5-0.5-3.1-1.1-4.5
	c-0.3-0.8-0.9-1.5-1.6-2c-0.5-0.3-1.2-0.4-1.7-0.3c-1.5,0.7-2.8,1.7-3.9,3c-3.2,3.7-6.7,11.5-8.6,16
	C118.1,245,118.9,244.3,118.5,244.4z"/>
<path class="st0" d="M70.1,265.4c-0.2,0.3-0.4,0.6-0.7,0.8l0,0c-0.6,0.6-1.5,1-2.4,1c-0.3-0.8-0.3-1.8,0-2.6l0,0
	c0.1-0.4,0.3-0.7,0.6-1c0.6-0.9,1.6-2.1,2.3-3c1.7-2.1,1.2-1.4,1.6-1.8c0.8-0.4,1.7-0.7,2.6-0.9C73.8,261.8,73.9,260.2,70.1,265.4z"
	/>
<path class="st0" d="M54.8,231.6c2.8,5.9,7.3,19.3,8.9,25.7c1.1,4.1,1.8,8.2,2.1,12.4c0.2,2.8,0,6-1.6,8.4c-1.5,2.2-4,3.5-6.6,3.4
	c-0.7,0-1.4-0.1-2.1-0.2c-2.7-0.7-5-2.3-6.5-4.6c-2.5-3.6-2.7-7.1-2.9-11.5c-0.2-4.9-0.3-7.5-3.4-12.9l0,0
	c-3.3-5.7-8.6-11.5-8.9-19.5c-0.2-2.5,0.1-5,0.9-7.4C37.6,217.4,47.1,216.5,54.8,231.6z M40.3,221.7c-0.1,0,0,0-0.4,0.4
	c-0.6,0.4-1.1,0.8-1.6,1.3c-1.1,1.4-1.7,3.1-1.9,4.9c-1.3,12,7.7,17.3,11.6,28.2c2.4,7.3-0.5,13.8,4.2,19.2c1.2,1.5,3,2.5,4.9,2.7
	c0.5,0,0.9,0,1.4,0c2.3-0.5,3.9-1.6,4.3-5.3c0.1-3.2-0.1-6.3-0.8-9.4c-1.6-8.6-4.1-15.5-7.3-24.2c-1.2-3.7-2.8-7.4-4.7-10.8
	C47.9,225.2,44.1,220.6,40.3,221.7L40.3,221.7z"/>
<path class="st0" d="M132.6,240.6c0.6,0.1,1.1,0.4,1.6,0.7c0.4,0.3,0.3,0.1,1.1,1.1c-0.7,0.6-1.6,1-2.5,1.1l0,0l-0.4,0.1l0,0
	c-1.1,0.1,0.6-0.1-4.7-0.2c-3.3-0.1-2.9,0.2-4.8-0.4c-0.5-0.2-0.2,0-1.4-1.1c1.1-1.2,0.8-1,1.3-1.1c1.5-0.5,1.6-0.5,3.8-0.5
	C127.8,240.3,131.9,240.4,132.6,240.6z"/>
<path class="st0" d="M128.9,247.7c0.3,0.1,0.6,0.3,0.9,0.4c0.8,0.5,0.4,0.2,1.5,1.3c-0.5,0.4-1.1,0.8-1.7,1c-0.3,0.1-0.7,0.2-1,0.3
	c-0.6,0-1.1,0-1.7-0.1c-5.1-0.4-4.6,0.1-6.2-0.5c-0.8-0.3-0.4,0-1.6-1.2l0.9-1c0.4-0.2,0.9-0.4,1.3-0.5c0.5-0.1,1-0.1,1.5-0.1
	C124.9,247.3,126.9,247.5,128.9,247.7z"/>
<path class="st0" d="M53.8,251.1c0.5,0.1,1.1,0.3,1.5,0.6c0.4,0.2,0.2,0.1,1.1,1.1c-0.6,0.6-1.4,1-2.3,1.2c-1,0.1-2.1,0.2-3.1,0.1
	c-1.4,0-3.4,0.2-3.5,0.2c-0.4,0.1-0.8,0.1-1.2,0c-1.6-0.3-1.2-0.2-2.4-1.2l0.9-1.1c0.6-0.4,1.3-0.6,2-0.8
	C49.1,251.1,51.4,251,53.8,251.1z"/>
<path class="st0" d="M55,260.7c0.4,0.1,0.7,0.2,1.1,0.4c0.7,0.5,0.1-0.2,1.4,1.3c-0.6,0.6-1.3,1-2.1,1.2h0c-0.2,0.1-0.1,0-0.3,0.1h0
	c-0.2,0-0.1,0-0.3,0l0,0c-5.1,0.1-5.5,0.7-7.2,0.3c-0.8-0.2-0.4,0-1.7-1.1l0.9-1.1c0.2-0.1,0.3-0.2,0.8-0.4c0.5-0.2,1-0.4,1.5-0.4
	C51.1,260.9,53.1,260.7,55,260.7z"/>
<path class="st0" d="M170.3,95.9c0.7,1.5,0.4,0.6,0.5,1.7c0.1,1.6,1,4.5-1.1,6.7c-2.8,2.5-5.5,5.3-7.9,8.2l0,0
	c-1.4,1.5-2.7,2.6-2.9,2.8l-0.7,0.3c0,0-0.6-0.1-0.7-0.1l-0.3-0.6c0.1-0.8,0.1-0.7,0.1-0.8c0.5-1,1-2,1.6-2.9
	c1.9-2.4,3.9-4.6,6.1-6.8c3.2-3.1,2.5-1.8,3.1-4.9c0.2-1,0.5-2,0.9-2.9C169.3,96.4,169.1,96.5,170.3,95.9z"/>
<path class="st2" d="M90.1,93.7l0.6,0.3l0.2,0.5v0L90.6,95L90,95.3c-1.8,0.3-3.6,0.5-5.5,0.6c-18.9-0.2-19.4-0.3-23.5-1.3
	c-0.3-0.1-0.1,0-0.9-0.5L60,93.4v0l0.3-0.6c0.9-0.4,0.4-0.3,1.6-0.3c7.1-0.2-0.8-0.2,14,0.2C85.9,92.8,85.3,92.7,90.1,93.7z"/>
<path class="st2" d="M90.1,108.3l0.6,0.3l0.2,0.6v0c-0.5,0.9,0.3,0.7-7.1,0.6c-3.4,0-3.4-0.1-11.1-0.4c-4.4-0.2-13.1-0.3-17.4-0.5
	c-13.4-0.6-13.1-1.1-18.2-2.1v0l-0.6-0.4l-0.2-0.7v0l0.4-0.6c0.8-0.3,0.6-0.2,1.1-0.2C74.7,107,77.5,105.5,90.1,108.3z"/>
<path class="st2" d="M85.4,119.2l0.7,0.9l-0.9,0.7c-0.4,0-3.2,0.2-3.4,0.2c-3.5,0.1-4.9-0.6-17.5-0.3c-2.1,0.1-4.3,0-6.4-0.4
	c-0.1,0,0,0-0.7-0.3l-0.3-0.6v0l0.3-0.6l0.7-0.4c1.6-0.3,3.3-0.5,4.9-0.7C79,117.3,81.5,117.8,85.4,119.2z"/>
<path class="st2" d="M78.9,56.1l-22,9.5l1.2-21.4L78.9,56.1z"/>
<path class="st2" d="M67.7,48c3.4,2.1,4.8,2.9,11.5,7.4c0.3,0.2,0.5,0.6,0.4,0.9c-0.1,0.2-0.2,0.4-0.4,0.5c-0.3-0.6-0.6-1.3,0.1,0.2
	c-6.4,3.2-8.8,4.3-12,5.8c-10.7,4.6-9.8,4.3-10.5,4.3c-0.3,0-0.7-0.2-0.9-0.4c-0.2-0.2-0.4-0.6-0.4-0.9c0-0.4,0.2-3.1,1.2-21.6
	c0-0.3,0.2-0.7,0.4-0.9c0.2-0.3,0.5-0.4,0.9-0.5C58.7,42.7,58,42.4,67.7,48z M58.6,63.2c8.3-3.6,9-4,18.1-7.3
	c-8.7-4.2-10-5.1-17.1-9.2L58.6,63.2z"/>
<path class="st2" d="M22.5,52.9l20.8,11.9l1.2-21.4L22.5,52.9z"/>
<path class="st2" d="M44.9,42c0.3,0.1,0.6,0.3,0.8,0.6c0.2,0.3,0.3,0.6,0.3,1c-1.3,23.3-1.1,21.5-1.4,22.1c-0.4,0.6-1.1,0.9-1.8,0.6
	c-0.3-0.2,0.8,0.5-9.4-5.4c-3-1.8-5.2-3.2-11.3-7.1c0.1-0.3,0.1,0-0.2-0.4c-0.2-0.3-0.1-0.7,0.1-1c0.5-0.4,8.3-4.3,8.4-4.3
	c3.8-1.8,2.4-1.2,13.5-6C44.2,41.9,44.6,41.9,44.9,42z M24.8,53c8.5,4.3,8.9,4.6,17.1,9.3l0.9-16.5C35,49.2,33.8,49.8,24.8,53z"/>
<path class="st2" d="M109.4,57.9l-22,9.5L88.6,46L109.4,57.9z"/>
<path class="st2" d="M98.2,49.7c3.4,2.1,4.8,2.9,11.5,7.4c0.4,0.2,0.5,0.7,0.3,1.1c-0.1,0.1-0.2,0.3-0.4,0.3
	c-0.3-0.6-0.6-1.3,0.1,0.2c-6.4,3.2-8.8,4.4-12,5.8c-10.7,4.6-9.8,4.3-10.5,4.3c-0.3,0-0.7-0.2-0.9-0.4c-0.2-0.2-0.4-0.6-0.4-0.9
	c0-0.4,0.2-3.1,1.2-21.6c0-0.3,0.2-0.7,0.4-0.9c0.2-0.3,0.5-0.4,0.9-0.5C89.3,44.4,88.5,44.2,98.2,49.7z M89.1,65
	c8.3-3.6,9-4,18.1-7.3c-8.7-4.2-10-5.1-17.1-9.2L89.1,65z"/>
<path class="st2" d="M20.2,56.3c0.5-11.9,0.5-12.8,1-15.4c0.4-2,0.2-1.4,0.8-2.3l0.6-0.2h0l0.6,0.3c0.3,0.7,0.3,0.6,0.3,0.7
	c0.4,4.6,0.3,3.5,0,8.9c-0.6,13.3-0.3,12.4-1.5,17l-0.9,0.8l-0.7-0.9C19.8,60.7,20,61.4,20.2,56.3z"/>
<path class="st2" d="M111.5,43.9c0.4,0.9,0.3,0.3,0.4,2.3c0.2,2.9,0,3-0.8,15.9c0,2.3-0.3,4.5-0.8,6.7c-0.1,0.8-0.4,1.6-0.8,2.4
	l-0.5,0.3h0l-0.4-0.4l-0.3-0.8c-0.6-4.2-0.5-4.1-0.1-9.8c0.8-12.9,0.8-12.1,1.7-16.1c0-0.1,0,0,0.4-0.7l0.6-0.2h0L111.5,43.9z"/>
<path class="st0" d="M101.8,78.6l-0.6,1.2c-0.3,0.3-0.6,0.6-0.8,0.9l0,0c0,0,0.1-0.1-0.3,0.3c-0.9,0.7-1.4,1.8-1.5,2.9
	c-0.1,1.3,0.3,1.3,0.4,2.3c0,0.2,0.1,0.7,0.1,1c0.1,0.2,0,0,0,1.3c-1.3-0.1-1.1,0-1.3-0.1c-0.6-0.3-1.2-0.8-1.6-1.3
	c-0.2-0.3-0.4-0.7-0.4-1.1l0,0c-0.7-2.6,0.2-5.3,2.2-7c0.5-0.4,1.1-0.7,1.7-0.8c0.3,0,0.6-0.1,0.9-0.1L101.8,78.6z"/>
<path class="st0" d="M107.9,75.4c0.4,0.1,0.1-0.1,1.3,1l-0.9,1c-0.1,0.1-0.3,0.2-0.4,0.3c-0.1,0,0,0-0.1,0.1l0,0
	c-0.2,0.1-0.3,0.3-0.4,0.4l0,0c0,0,0,0-0.1,0.1v0c-0.1,0.1-0.2,0.2-0.3,0.3l0,0c-0.1,0.1-0.2,0.3-0.3,0.5l0,0
	c-0.5,0.8-0.7,1.8-0.5,2.8c0.1,0.5,0.3,0.9,0.5,1.3c0.1,0.2,0.2,0.5,0.3,0.7l0,0c0.1,0.1,0.1,0.3,0.2,0.4c0.2,0.2,0-0.1,0.6,1.2
	c-1.1,0.5-1,0.5-1.8,0.3c-3.3-0.6-4.1-7.1-0.5-9.9l0,0c0.1-0.1,0.2-0.2,0.4-0.2l0,0C106.4,75.4,107.2,75.3,107.9,75.4z"/>
<path class="st5" d="M239.8,23.1c1.5,1.1,2.4,2.2,3.2,5.1c0,0.2,0.1,0-0.3,1.2c-1.2-0.5-1-0.4-1.1-0.5c-1.2-1.5-2.7-2.8-4.4-3.8
	c-1.9-0.8-4-0.7-5.8,0.3c-1.5,0.8-2.8,1.9-3.8,3.3c-0.9,1-1.6,2-2.3,3.1l0,0l-0.6,0.5l-0.7,0h0l-0.5-0.5c-0.1-0.6-0.1-1.3,0.2-1.9
	c0.4-1.5,1.2-3,2.3-4.1C229.7,21.6,235.2,20,239.8,23.1z"/>
<path class="st5" d="M246.4,34.3L246.4,34.3L246.4,34.3l0.1,0.1l0,0c0.1,0.3,0,0.1,0.2,0.5c0.6,1.7,0.4,1.1,0.4,1.5
	c-0.4,0.7-0.2,0.5-1.9,1.1c-0.3,0-0.5-0.1-0.8-0.2c-0.1-0.1-0.1,0-0.1-0.2c0-0.1-0.5-1.4-0.6-1.7c0-0.2,0-0.1,0-0.2
	c0-0.1,0.1-0.2,0.1-0.3c0,0,0.2-0.3,0.2-0.3l1.8-0.6C246,34.2,246.2,34.2,246.4,34.3z"/>
<path class="st5" d="M195.7,86.1c0.4,0,0.8,0.2,1.2,0.4l0.2,0.5c-0.5,0.8,0,0.7-4.9,0.9c-6,0.3-16.9-0.1-28.7,2.9l0,0
	c-1.1,0.3-5.5,1.5-7.8,2.3c-2.7,0.9-1.4,0.7-2.8,0.8l-0.5-0.4l0,0l-0.1-0.7l0.4-0.6c0.1-0.1,0.3-0.2,1.8-1.1c1-0.6,2.1-1.1,3.2-1.6
	c6.4-2.7,16.8-3.9,23.9-4.3C187.7,85.1,190.4,85.1,195.7,86.1z"/>
</svg>
